<svg width="14" height="12" viewBox="0 0 14 12" fill="none" xmlns="http://www.w3.org/2000/svg">
<path d="M12 5.6C12.3314 5.6 12.6 5.33137 12.6 5C12.6 4.66863 12.3314 4.4 12 4.4V5.6ZM0 5L-0.424264 4.57574C-0.658579 4.81005 -0.658579 5.18995 -0.424264 5.42426L0 5ZM5.42426 0.424264C5.65858 0.18995 5.65858 -0.18995 5.42426 -0.424264C5.18995 -0.658579 4.81005 -0.658579 4.57574 -0.424264L5.42426 0.424264ZM4.57574 10.4243C4.81005 10.6586 5.18995 10.6586 5.42426 10.4243C5.65858 10.1899 5.65858 9.81005 5.42426 9.57574L4.57574 10.4243ZM12 4.4H0V5.6H12V4.4ZM0.424264 5.42426L5.42426 0.424264L4.57574 -0.424264L-0.424264 4.57574L0.424264 5.42426ZM-0.424264 5.42426L4.57574 10.4243L5.42426 9.57574L0.424264 4.57574L-0.424264 5.42426Z" transform="translate(1 1)" fill="#7A8EB8"/>
</svg>
