<svg width="17" height="17" viewBox="0 0 17 17" fill="none" xmlns="http://www.w3.org/2000/svg">
<path fill-rule="evenodd" clip-rule="evenodd" d="M2.39999 4.6V4V3V2.4H3H4H4.60001V3V4V4.6H4H3H2.39999ZM0 1V5.8V7H1.20001H5.79999H7V5.8V1.2V0H5.79999H1C0 0 0 1 0 1ZM1.20001 1.2V5.8H5.79999V1.2H1.20001ZM11.4 13.6H12H13H13.6V13V12V11.4H13H12H11.4V12V13V13.6ZM2.39999 12V11.4H3H4H4.60001V12V13V13.6H4H3H2.39999V13V12ZM0 10.2V15C0 15 0 16 1 16H5.79999H7V14.8V10.2V9H5.79999H1.20001H0V10.2ZM1.20001 10.2V14.8H5.79999V10.2H1.20001ZM15.4109 15.843C15.1611 16.0095 14.855 16.1 14.5 16.1H11.5V14.9H14.5C14.645 14.9 14.7139 14.8655 14.7453 14.8445C14.7805 14.8211 14.8114 14.7855 14.8383 14.7317C14.8664 14.6755 14.8835 14.6121 14.8925 14.5576C14.8969 14.5318 14.8987 14.5116 14.8996 14.5002L14.9 14.4928V13.5H16.1V14.5H15.5C16.1 14.5 16.1 14.5003 16.1 14.5006V14.5012V14.5025L16.1 14.5055L16.0999 14.5125L16.0994 14.5312C16.0989 14.5456 16.0981 14.564 16.0965 14.5857C16.0934 14.629 16.0875 14.6869 16.0762 14.7549C16.054 14.8879 16.0086 15.0745 15.9117 15.2683C15.8136 15.4645 15.657 15.6789 15.4109 15.843ZM8.89999 16V13.5H10.1V16H8.89999ZM16.1 9V11.5H14.9V9H16.1ZM8.89999 11.5V9.5V8.9H9.5H13.5V10.1H10.1V11.5H8.89999ZM13.6 4V4.6H13H12H11.4V4V3V2.4H12H13H13.6V3V4ZM16 5.8V1C16 1 16 0 15 0H10.2H9V1.2V5.8V7H10.2H14.8H16V5.8ZM14.8 5.8V1.2H10.2V5.8H14.8Z" fill="#7A8EB8"/>
</svg>
