<svg width="400" height="227" viewBox="0 0 400 227" fill="none" xmlns="http://www.w3.org/2000/svg">
<g id="openbox">
<path d="M0 31.4796L78.6124 64.8864L158.513 31.4796L78.6124 0L0 31.4796Z" transform="translate(120 161)" fill="#6C87BA" fill-opacity="0.42"/>
<path d="M0 33.4069V132.343L79.9011 98.9358V0L0 33.4069Z" transform="translate(319 58.6574)" fill="#6C87BA" fill-opacity="0.42"/>
<path d="M0 98.9358V0L78.6124 33.4069V132.343L0 98.9358Z" transform="translate(1 58.6574)" fill="#6C87BA" fill-opacity="0.42"/>
<path d="M0 130.415V31.4796L78.6124 0L158.513 31.4796V130.415L78.6124 163.822L0 130.415Z" transform="translate(120 0.928619)" fill="#30394A"/>
<path d="M0 33.4069V132.343L79.9011 98.9358V0L0 33.4069Z" transform="translate(258.612 52.4082)" fill="#151C28"/>
<path d="M0 98.9358V0L78.6124 33.4069V132.343L0 98.9358Z" transform="translate(60 52.4082)" fill="#47536B"/>
</g>
<g id="weefy">
<path fill-rule="evenodd" clip-rule="evenodd" d="M31.7562 38.6095C31.2866 36.8425 30.8307 35.0717 30.3451 33.3091C28.9343 28.187 28.1789 23.0361 29.8523 17.8304C30.2295 16.6568 30.8681 15.566 31.4043 14.4458C31.4544 14.341 31.6349 14.2984 31.7548 14.227C31.8195 14.3765 31.907 14.5208 31.9424 14.677C31.9764 14.8277 31.9679 15.0009 32.1612 15.0232C32.3827 15.0488 32.4186 14.8297 32.4011 14.712C31.941 11.6037 34.6463 10.7393 36.3649 9.23046C37.6775 8.07795 39.328 7.43056 40.9535 6.794C41.1317 6.72422 41.4588 6.74818 41.4321 6.47002C41.4208 6.35245 41.1511 6.22564 40.9771 6.16296C39.7773 5.7306 38.5721 5.31637 37.2688 5.33855C37.1329 5.3409 36.907 5.30667 36.8759 5.22859C36.7765 4.9792 37.0422 4.99625 37.1771 4.91854C39.1138 3.80286 41.1743 3.5131 43.486 4.07291C42.9004 3.34459 42.1799 3.0784 41.5344 2.70283C41.3892 2.61834 41.0679 2.69693 41.1422 2.39881C41.164 2.31147 41.4198 2.26419 41.5754 2.23117C43.4757 1.82728 45.1955 2.42264 46.8812 3.19831C47.1529 3.32329 47.423 3.45137 47.8322 3.6427C47.6403 2.7657 46.9207 2.43316 46.5588 1.85662L46.5697 1.8442C47.7541 1.94237 48.6891 2.60941 49.6593 3.19578C49.7757 3.26613 49.8719 3.47958 50.0208 3.31797C50.0697 3.26492 49.9832 3.04791 49.9144 2.93201C49.2546 1.81892 48.3235 0.932284 47.3506 8.87275e-08C48.9576 0.06103 51.0471 0.554046 53.4271 3.09805C53.3183 2.02313 52.8568 1.22501 52.3422 0.29021C53.6328 0.746585 54.5317 1.47136 55.2933 2.42531C56.0483 3.37083 56.534 4.47048 57.167 5.57824C57.479 4.802 57.2848 4.10854 57.2074 3.41742L57.2343 3.39568C57.9619 3.83671 58.2916 4.61676 58.4666 5.32981C58.7447 6.46311 59.5696 6.78812 60.4519 7.19734C64.3047 8.98393 67.3651 11.6543 69.4027 15.4119C69.8278 16.196 70.1165 17.0539 70.468 17.8776C70.4977 18.1345 70.5108 18.3945 70.559 18.648C71.3981 23.0575 71.0437 27.3841 69.3454 31.5235C68.21 34.2907 67.206 37.0579 66.9708 40.0583C66.7104 43.3808 67.5833 46.5036 68.6282 49.6021C69.076 50.9298 69.4997 52.0788 70.9053 52.9202C74.1012 54.8331 76.9529 57.2309 79.0938 60.3542C79.1733 60.4701 79.207 60.6173 79.2619 60.7501C79.1174 60.7498 78.9702 60.7673 78.8286 60.7465C78.1039 60.6398 77.3819 60.5137 76.6558 60.4178C76.5007 60.3974 76.3327 60.4749 76.1706 60.5072C76.2678 60.6347 76.3432 60.79 76.4655 60.8854C78.9245 62.8046 80.7568 65.2497 82.3283 67.9037C82.6016 68.3652 82.9858 68.8031 83.0053 69.3909C82.5423 69.3347 82.0796 69.2774 81.6161 69.2256C81.5889 69.2225 81.5568 69.2643 81.4741 69.3221C84.2765 71.4645 86.1098 74.2904 87.5098 77.6357C87.0747 77.4356 86.7964 77.2772 86.4984 77.179C86.1949 77.079 85.8732 77.0313 85.557 76.9747C85.439 76.9535 85.2395 76.9261 85.2061 76.9805C85.0987 77.1555 85.2926 77.2302 85.3954 77.3307C87.7699 79.6534 89.2459 82.4639 89.9283 85.6992C90.0021 86.0498 89.9953 86.4174 90.026 86.7772C89.7598 86.6306 89.4949 86.4821 89.2273 86.3383C89.0377 86.2365 88.8495 86.1292 88.6507 86.0487C88.5629 86.0132 88.4506 86.0383 88.3494 86.0358C88.3603 86.1325 88.3435 86.244 88.3864 86.3235C89.344 88.0996 89.9301 89.9945 90.3161 91.9716C90.8524 94.7184 90.7736 97.479 90.7297 100.433C90.345 99.8902 90.0782 99.5136 89.7307 99.0232C89.5304 101.113 89.3665 103.026 88.7107 104.849C88.3133 105.954 87.8986 107.053 87.4916 108.154C87.1973 108.179 87.2196 108.456 87.1246 108.63C86.1581 110.401 84.6976 110.752 83.6807 109.468C83.0563 108.679 82.8057 107.715 82.3756 106.836C82.3766 106.679 82.3775 106.522 82.3785 106.365C82.3582 106.311 82.338 106.257 82.3179 106.203C82.1738 105.164 82.0136 104.126 81.8889 103.084C81.5253 100.046 80.9695 97.0653 79.7662 94.2174C78.808 91.9494 77.5476 89.8711 76.1809 87.8426C76.0057 86.4878 75.8305 85.1328 75.6455 83.7016C76.5991 84.8666 77.4981 85.9648 78.4425 87.1182C78.7187 85.9219 78.5483 84.8298 78.5173 83.7452C78.462 81.8042 77.8926 79.9759 77.0776 78.233C76.5726 77.1534 75.953 76.127 75.385 75.0767L75.422 75.0397C75.6842 75.1196 75.9501 75.1888 76.2078 75.2811C77.2101 75.6402 77.8578 76.5328 78.7889 77.0002C78.8172 77.0456 78.8455 77.0909 78.8736 77.1362C78.8433 77.0926 78.8128 77.0492 78.7825 77.0056C77.9627 75.2535 76.9291 73.6333 75.8079 72.0589C73.3655 68.6294 70.4873 65.6535 66.9271 63.3703C66.8046 63.2919 66.6723 63.0376 66.5067 63.2366C66.4464 63.309 66.5422 63.5578 66.6224 63.6933C68.4849 66.8416 69.9116 70.1458 70.4321 73.8052C70.9249 77.2697 70.7622 80.735 70.5557 84.2038C70.545 84.3828 70.4382 84.556 70.3761 84.7319C70.2111 84.609 70.0257 84.5058 69.8846 84.3598C69.246 83.6992 68.6199 83.0266 67.8639 82.2253C67.8976 82.5131 67.8946 82.5979 67.9183 82.6744C68.7888 85.4804 69.8867 88.2302 70.2556 91.1643C70.3646 92.0322 70.5087 92.616 71.5081 92.5807C71.5676 92.8887 71.6717 93.1607 72.0312 93.2264C72.2167 94.4576 71.3529 94.4072 70.5526 94.4344C70.2109 94.0988 69.7368 93.3497 69.5648 93.4985C69.1494 93.8582 70.03 94.0598 69.9819 94.5033C69.777 94.4929 69.5722 94.4824 69.3003 94.4684C69.3837 94.6044 69.446 94.6864 69.4876 94.7778C69.6271 95.0839 70.2243 95.3922 69.9265 95.6257C69.5118 95.9507 69.3618 95.2857 69.0928 95.0558C68.6268 94.6576 68.3537 93.9376 67.5372 94.137C67.442 94.1603 67.2949 94.194 67.2733 94.2574C67.1883 94.5071 67.4724 94.5495 67.5708 94.7021C67.6091 94.7615 67.6577 94.9615 67.773 94.7859C68.1646 94.1906 68.3638 94.7445 68.5818 94.9325C69.1478 95.4207 68.9856 96.3389 69.2729 96.74C71.3621 99.6559 72.9968 102.794 74.3701 106.086C74.3888 107.029 74.4881 107.98 74.2193 108.949C73.9225 108.666 73.7073 108.455 73.4859 108.25C73.145 107.935 72.8082 107.611 72.3237 107.525C72.3521 107.95 72.3389 108.383 72.4155 108.799C72.8923 111.388 72.8335 113.999 72.6258 116.596C72.543 117.63 72.4867 118.731 71.9322 119.897C71.9076 118.989 71.5539 118.408 71.1581 117.847C71.0794 117.735 70.9727 117.643 70.8788 117.542C70.838 117.672 70.7641 117.8 70.7615 117.93C70.7391 119.028 70.7299 120.127 70.7167 121.226C70.2825 123.197 69.9917 125.205 69.179 127.076C69.0257 127.429 68.9303 128.004 68.6882 128.077C68.2949 128.194 68.4526 127.509 68.0505 127.315C67.9839 129.305 67.311 131.108 66.456 132.857C65.8515 134.093 65.1467 135.268 64.2682 136.33C64.0618 136.579 63.9395 136.935 63.5654 137.022C63.5243 136.71 63.4833 136.398 63.439 136.062C62.3552 137.323 61.2768 138.578 60.1985 139.832C59.7343 140.209 59.2703 140.585 58.8062 140.962C58.2278 141.442 57.4973 141.742 57.0813 142.415C55.3128 143.352 53.6481 144.484 51.7788 145.231C49.334 145.457 48.6317 144.651 49.0694 142.203C49.2086 141.425 49.6276 140.705 49.5423 139.883C50.1984 139.481 50.0679 138.584 50.6448 138.132C51.3098 138.204 51.8605 137.842 52.4117 137.59C55.9649 135.963 58.7104 133.472 60.4392 129.929C61.6147 127.519 62.2947 125.002 62.1391 122.218C61.5737 122.7 61.0967 123.161 60.5622 123.541C60.2784 123.743 59.8511 123.967 59.5685 123.89C59.2413 123.8 59.4254 123.318 59.4348 123.019C59.58 118.408 59.1053 113.855 58.2399 109.332C58.1204 108.707 57.8598 108.421 57.2057 108.544C56.1694 108.738 55.1226 108.881 54.0939 109.108C53.6469 109.206 53.528 109.08 53.5849 108.683C53.6768 108.044 53.7371 107.395 53.8986 106.773C54.0888 106.041 53.9292 105.697 53.1199 105.824C50.7792 106.192 48.4582 106.671 46.239 107.502C43.2492 108.623 40.4862 110.173 37.9872 112.175C37.8981 112.246 37.7662 112.264 37.6543 112.307C37.636 112.182 37.6135 112.058 37.6001 111.933C37.5252 111.235 37.4525 110.537 37.3439 109.505C37.0301 110.278 36.8772 110.724 36.6735 111.146C34.8687 114.881 32.3418 118.031 28.9918 120.499C28.5517 120.823 28.0557 121.072 27.5856 121.355C27.3592 120.86 27.3413 120.333 27.3285 119.802C27.3246 119.639 27.2611 119.477 27.2249 119.315C27.0683 119.407 26.8934 119.478 26.7579 119.595C23.8363 122.113 20.5736 124.04 16.9491 125.382C16.2524 125.64 15.4235 125.602 14.8585 126.2C9.80483 125.407 6.04312 122.75 3.49379 118.343C3.37097 118.073 3.24776 117.802 3.12462 117.531C3.27346 117.24 3.19041 116.967 2.96824 116.785C2.55549 116.445 3.12462 115.684 3.12462 115.684L3.48175 115.388C3.48175 115.388 3.81119 114.965 3.97164 114.743C3.97164 114.743 4.66187 113.116 5.27205 112.781C5.89379 112.439 6.24672 113.138 6.65863 113.611C7.39049 113.893 8.14658 114.127 8.84635 114.474C9.35984 114.728 9.70015 114.925 9.55462 114.035C11.0739 115.071 12.6285 115.74 14.4481 115.564C15.1486 115.496 16.1113 115.705 16.4262 115.097C16.7385 114.493 15.8146 114.052 15.4329 113.51C15.5166 113.484 15.5715 113.454 15.6274 113.452C18.6636 113.346 21.3229 112.242 23.6967 110.396C24.3109 109.918 24.642 109.416 23.6842 108.927C23.276 108.718 22.8853 108.475 22.486 108.248C24.9766 106.587 26.5885 104.334 27.4138 101.507C27.547 101.05 27.4072 100.836 26.9125 100.933C26.291 101.055 25.6684 101.174 24.9553 101.631C25.7346 99.9666 26.3025 98.4425 26.6932 96.8572C27.6823 95.0477 28.4766 93.1313 29.8131 91.411C29.2192 91.411 28.7655 91.3996 28.3126 91.4144C27.924 91.4272 27.8273 91.3138 27.9524 90.9167C28.809 88.1983 29.9723 85.6334 31.688 83.3406C32.2616 82.5739 32.858 81.824 33.5181 80.9704C32.3455 81.3702 31.3347 81.7211 30.3195 82.0581C29.7951 82.2323 29.6068 82.1508 29.7305 81.5C30.0282 79.9343 30.439 78.4098 30.9272 76.8918C31.979 73.6204 33.4233 70.5594 35.455 67.7792C36.3673 66.5308 37.5184 65.5185 38.8864 64.3807C37.3136 64.4911 35.9809 64.5219 34.6655 64.6883C30.2912 65.2416 26.0797 66.3035 22.4088 68.9013C22.1616 69.0764 21.6335 69.1507 21.729 69.4749C21.8163 69.7707 22.306 69.5549 22.6148 69.5971C23.1196 69.666 23.7336 69.7915 23.8401 70.2436C23.8977 70.4883 23.1334 70.3156 22.7781 70.501C22.7089 70.5372 22.6072 70.5086 22.5211 70.5162C17.8856 70.9255 13.8557 72.7063 10.4282 75.8487C10.3531 75.9175 10.3036 76.0141 10.2421 76.0978C10.3518 76.1401 10.464 76.224 10.5707 76.2177C11.0861 76.1871 11.6 76.1322 12.1267 76.0848C11.4763 76.8935 10.7977 77.5981 10.2799 78.4056C8.21982 81.618 7.36451 85.1265 7.85174 88.9345C7.66497 89.6293 7.47819 90.3241 7.29142 91.0188C7.12369 91.4066 6.98145 91.8079 6.78338 92.1795C6.22738 93.2232 5.48651 94.1126 4.32857 94.4914C3.28381 94.8329 2.82919 93.9167 2.22212 93.3567C2.20823 93.3437 2.18139 93.3449 2.16052 93.3396C1.86805 91.9036 1.57553 90.4676 1.25014 88.8701C0.945364 89.4606 0.709558 89.9176 0.459082 90.4028C0.394885 90.2868 0.339172 90.1963 0.293697 90.101C0.256706 90.0237 0.217754 89.9428 0.203865 89.8595C-0.285328 86.9219 0.0923338 84.1154 1.48367 81.4636C1.58937 81.2621 1.85138 81.0438 1.67196 80.8459C1.58398 80.749 1.20236 80.8089 1.02758 80.9172C-0.181555 81.6653 0.200564 80.7184 0.209061 80.1674C0.210075 80.103 0.224354 80.0389 0.23254 79.9748C0.774899 78.1354 1.38812 76.3345 2.51359 74.7405C3.32443 73.592 4.24611 72.5537 5.31155 71.6487C5.65325 71.3584 5.69309 71.2579 5.23554 71.1645C4.85654 71.0871 4.47767 71.0038 4.09499 70.9502C3.8371 70.914 3.48367 71.2044 3.34721 70.8899C3.28801 70.7534 3.59304 70.4283 3.77277 70.2241C6.15545 67.5182 9.02173 65.5452 12.5109 64.5183C11.9558 63.9334 11.1092 63.7182 9.82947 63.8598C10.0197 63.6418 10.1686 63.4712 10.3175 63.3002C13.3213 60.9452 16.6729 59.4855 20.5338 59.3256C20.6337 59.3214 20.8033 59.2167 20.8125 59.1431C20.8404 58.9155 20.6512 58.783 20.4677 58.733C19.8353 58.5605 19.1951 58.4171 18.5122 58.2517C18.589 58.1702 18.636 58.101 18.6999 58.0553C22.8543 55.0853 27.4765 53.1878 32.4478 52.1063C32.7768 52.0348 32.9011 51.9536 32.9673 51.6126C33.3914 49.4275 33.4203 47.2284 33.1339 45.0365C32.8496 42.8615 32.4998 40.6908 31.7562 38.6095ZM69.4291 25.6038C69.6388 25.3729 69.6001 25.1486 69.4113 24.9283C69.4808 24.2017 69.6324 23.4721 69.606 22.7489C69.4753 19.1697 67.3972 16.7568 64.702 14.7278C64.1598 14.3197 63.648 13.8824 63.8491 15.1161C63.8847 15.3348 63.808 15.5992 63.7072 15.8055C63.5996 16.0264 63.4219 16.3411 63.2392 16.3673C62.9674 16.4062 62.9834 16.0448 62.903 15.8298C62.3281 14.2906 61.3593 13.0526 59.9703 12.1742C59.6376 11.9638 59.2058 11.91 58.8196 11.7842C58.8578 12.1086 58.9022 12.4325 58.932 12.7577C58.9497 12.951 58.9638 13.1483 58.9447 13.3404C58.9197 13.5913 58.9316 13.9947 58.8004 14.0546C58.5479 14.17 58.4206 13.8117 58.267 13.6384C57.29 12.5373 56.2676 11.4923 54.91 10.8555C54.7332 10.7725 54.5041 10.8002 54.2993 10.7766C54.3427 10.9392 54.3705 11.108 54.4323 11.2633C54.61 11.709 54.873 12.1362 54.6799 12.768C53.5402 10.9776 51.993 10.0715 49.9531 10.4675C48.7599 10.6992 47.6296 11.2398 46.4532 11.58C45.9928 11.7132 45.3774 12.2551 45.1166 11.8941C44.8962 11.5895 45.6785 11.2233 45.9378 10.8219C45.9582 10.7904 45.9655 10.7506 45.9857 10.6965C44.1191 10.5547 42.7633 11.7683 41.2121 12.4469C41.0819 12.5039 40.9035 12.6376 40.8275 12.5946C40.6414 12.4892 40.8242 12.3428 40.864 12.2089C40.9579 11.8929 41.0364 11.5724 41.1211 11.2536C40.6795 11.1704 40.3182 11.3543 39.9895 11.6127C38.8876 12.4784 37.7912 13.3508 36.6264 14.2732C36.6485 13.9631 36.6672 13.7298 36.6811 13.4961C36.6895 13.3563 36.6906 13.2161 36.6951 13.076C36.5384 13.1335 36.352 13.1545 36.2293 13.2539C33.3931 15.552 31.8308 18.5079 31.4953 22.1566C31.36 23.6283 31.8874 25.0015 31.8848 26.4392C31.8992 26.6109 31.8858 26.7905 31.932 26.9532C32.8208 30.0782 34.6955 32.5214 37.1434 34.6003C39.6424 36.7226 42.6884 38.0677 45.1214 40.2774C45.3263 40.4634 45.5576 40.5039 45.6363 40.1273C45.7217 39.7186 45.8125 39.3109 45.9011 38.9029C46.2322 39.2277 46.5738 39.543 46.8911 39.8809C47.0967 40.0997 47.2524 40.3648 47.4559 40.5859C48.2361 41.4337 48.6759 42.5049 49.3479 43.63C49.6297 42.058 50.0831 40.7543 50.7986 39.5397C51.0639 39.0894 51.3082 39.1508 51.605 39.4419C52.5058 40.3259 53.2536 41.3093 53.5865 42.5563C53.6115 42.6498 53.6788 42.7321 53.7265 42.8197C53.8063 42.7673 53.915 42.7332 53.9617 42.6598C56.5137 38.6433 60.3991 36.1803 64.3529 33.819C67.4907 31.945 69.1845 29.2348 69.4291 25.6038ZM70.7958 92.8595C70.5881 92.9204 70.465 93.0409 70.53 93.2353C70.6399 93.5641 70.8223 93.8677 71.1866 93.9482C71.3869 93.9924 71.5072 93.8137 71.4753 93.6238C71.4097 93.2339 71.1177 93.029 70.7958 92.8595ZM69.1473 93.0167C69.1014 92.9854 69.0534 92.9529 69.0056 92.9203C68.9932 92.9689 68.9566 93.0316 68.9746 93.0626C68.997 93.1008 69.0647 93.1126 69.1128 93.136C69.123 93.1009 69.1331 93.0657 69.1473 93.0167Z" transform="translate(151.334 43)" fill="#A79F94"/>
<path fill-rule="evenodd" clip-rule="evenodd" d="M20.5673 104.52C20.9742 103.419 21.389 102.32 21.7864 101.215C22.4421 99.3922 22.6061 97.4791 22.8064 95.3892C23.1538 95.8796 23.4207 96.2562 23.8054 96.7992C23.8493 93.8449 23.9281 91.0844 23.3917 88.3376C23.0058 86.3605 22.4197 84.4656 21.4621 82.6895C21.4192 82.61 21.436 82.4985 21.425 82.4018C21.5263 82.4043 21.6386 82.3792 21.7264 82.4147C21.9252 82.4952 22.1134 82.6025 22.3029 82.7043C22.5705 82.848 22.8355 82.9966 23.1017 83.1431C23.071 82.7834 23.0778 82.4158 23.004 82.0652C22.3216 78.8298 20.8456 76.0193 18.4711 73.6967C18.3683 73.5962 18.1744 73.5215 18.2818 73.3465C18.3151 73.2921 18.5147 73.3195 18.6327 73.3407C18.9489 73.3973 19.2706 73.445 19.5741 73.545C19.8721 73.6432 20.1504 73.8015 20.5855 74.0017C19.1854 70.6564 17.3522 67.8304 14.5498 65.688C14.6325 65.6302 14.6646 65.5885 14.6917 65.5916C15.1552 65.6434 15.618 65.7007 16.081 65.7568C16.0614 65.1691 15.6772 64.7312 15.4039 64.2696C13.8325 61.6157 12.0002 59.1706 9.54119 57.2514C9.41887 57.156 9.34351 57.0007 9.24632 56.8732C9.40835 56.8409 9.57633 56.7634 9.73152 56.7838C10.4575 56.8796 11.1795 57.0058 11.9043 57.1125C12.0459 57.1333 12.1931 57.1158 12.3376 57.116C12.2826 56.9833 12.249 56.836 12.1695 56.7202C10.0286 53.5968 7.17687 51.199 3.98095 49.2861C2.57534 48.4448 2.15168 47.2958 1.70391 45.968C0.659025 42.8696 -0.213928 39.7467 0.046435 36.4243C0.28167 33.4239 1.28571 30.6567 2.42106 27.8895C4.11939 23.75 4.47376 19.4234 3.63469 15.0139C3.58647 14.7605 3.5734 14.5004 3.54371 14.2436C6.3614 12.4927 9.16083 10.7111 12.0011 8.99743C16.8761 6.05612 21.8636 3.32489 27.2733 1.47143C30.6733 0.306505 34.1568 -0.447868 37.7641 0.297056C42.1011 1.1927 44.5885 4.205 46.2814 8.02883C47.1893 10.0798 47.7764 12.2074 47.8882 14.4827C48.1264 19.328 47.1575 23.915 45.2848 28.3633C42.1065 35.9125 37.4092 42.5427 32.7885 49.2265C30.4512 52.6073 28.0167 55.9331 26.2999 59.7003C24.3971 63.876 25.5762 66.8471 29.9113 69.0987C33.5335 70.9801 37.4311 72.1746 41.1668 73.7684C45.5497 75.6384 49.8082 77.6833 52.6096 81.8157C55.5474 86.1494 55.4431 91.5954 52.3344 95.9037C49.249 100.18 45.0317 103.067 40.5211 105.603C35.9524 108.172 31.0969 110.087 26.1817 111.864C26.0422 111.914 25.8845 111.914 25.7357 111.937C25.6183 111.934 25.5003 111.932 25.3824 111.929L25.364 111.911C25.3415 111.57 25.105 112.124 25.105 112.124L24.3901 112.362L23.6778 112.667C23.6778 112.667 23.4236 112.714 23.297 112.737C23.2136 112.769 23.0463 112.832 23.0463 112.832C23.0463 112.832 22.4149 112.975 22.0996 113.047C22.004 112.931 21.8749 112.829 21.8184 112.697C21.5794 112.137 20.4727 111.762 21.4251 110.925C21.4685 110.887 21.3794 110.65 21.3043 110.537C21.1853 110.358 21.018 110.37 20.8643 110.514C20.4854 110.871 20.2273 110.661 19.9558 110.351C19.8356 110.214 19.7586 109.859 19.4866 110.055C19.2494 110.225 19.1389 110.594 19.3357 110.811C19.9572 111.495 19.2875 111.712 18.9392 112.047C18.7749 112.205 18.6387 112.195 18.4515 112.009C17.9843 111.546 18.115 111.17 18.421 110.652C19.5411 108.757 20.3529 106.739 20.5673 104.52Z" transform="translate(218.258 46.634)" fill="#FDDD48"/>
<path fill-rule="evenodd" clip-rule="evenodd" d="M42.6254 17.8927C42.8122 17.198 42.9989 16.5033 43.1857 15.8085C43.3518 15.1879 43.5755 14.5762 43.6752 13.945C44.5509 8.40218 48.159 5.0787 52.8886 2.73414C56.177 1.10396 59.8752 0.913961 63.3723 0.0115956C63.4893 -0.0185689 63.6237 0.0189471 63.7499 0.0249047C63.712 0.155583 63.6926 0.295397 63.6333 0.415678C62.1063 3.51138 60.9375 6.72649 60.3149 10.2284C60.9485 9.77961 61.2794 9.10959 61.9664 8.87928C62.1187 8.82819 62.2567 8.61158 62.4133 8.77839C62.4796 8.84887 62.4346 9.06016 62.3914 9.19135C61.7539 11.1238 61.3549 13.1026 61.1484 15.1276C60.9392 17.1789 60.7805 19.2286 60.8754 21.4674C61.2497 20.9821 61.5199 20.6315 61.7903 20.2809C62.0176 20.5623 62.1328 19.3548 62.405 20.2348C62.5414 21.4285 62.1898 22.5696 62.0272 23.7311C61.6366 25.3164 61.0686 26.8405 60.2893 28.5048C61.0024 28.0476 61.625 27.9291 62.2465 27.8073C62.7412 27.7103 62.881 27.924 62.7478 28.3805C61.9225 31.2083 60.3106 33.4612 57.82 35.122C58.2193 35.3494 58.61 35.5922 59.0182 35.8006C59.976 36.2895 59.6449 36.7923 59.0308 37.2699C56.6569 39.1158 53.9976 40.2195 50.9614 40.3261C50.9055 40.3281 50.8506 40.3582 50.7669 40.3838C51.1487 40.9264 52.0725 41.3674 51.7602 41.9705C51.4453 42.5786 50.4826 42.3704 49.7821 42.4382C47.9625 42.6142 46.4079 41.945 44.8886 40.9089C45.0342 41.7988 44.6939 41.6024 44.1804 41.3478C43.4806 41.0009 42.7245 40.7671 41.9926 40.4849C41.9928 40.4849 42.0069 40.4868 42.0069 40.4868C41.9542 40.4301 41.9017 40.3734 41.849 40.3167C41.188 39.7718 40.8256 38.9078 39.9746 38.566C39.0452 37.7979 38.1737 36.9776 37.3534 36.0858C36.2314 34.8659 35.406 33.4313 34.3402 32.1767C34.311 32.1326 34.2818 32.0886 34.2527 32.0445C34.284 32.0867 34.3153 32.1289 34.3466 32.1713C34.7941 34.3921 35.9558 36.2802 37.1555 38.1567C35.1485 36.4991 33.6874 34.422 32.426 32.1661C32.5527 32.9242 32.7704 33.6372 32.9681 34.3556C33.3422 35.715 34.1977 36.843 34.7619 38.1108C34.7469 38.1288 34.7313 38.1455 34.715 38.1615C34.5863 38.0582 34.437 37.9723 34.332 37.8488C33.0713 36.3679 32.2414 34.6428 31.4615 32.6207C31.6148 34.4441 32.0001 35.965 32.6609 37.3991C33.202 38.5735 33.7143 39.7856 34.7455 40.6553C34.7395 40.7739 34.7335 40.8925 34.7275 41.0112C34.5456 41.1413 34.5512 41.343 34.6704 41.462C35.2438 42.0339 34.7228 42.228 34.3522 42.5157C33.8033 42.9419 33.7262 42.3789 33.489 42.1397C33.3727 42.0224 33.3151 41.6784 33.0879 41.9086C32.899 42.0999 32.6756 42.3829 32.8994 42.712C33.0829 42.9816 33.2931 43.2417 33.056 43.5845C31.2312 43.0249 29.3893 42.515 27.5848 41.8958C23.2983 40.4251 19.1063 38.7216 15.0999 36.5894C10.9056 34.3573 6.85729 31.8871 3.43191 28.5649C-1.3557 23.9214 -1.09857 17.9608 3.98023 13.6509C7.24873 10.8773 11.0845 9.62915 15.3243 9.30872C20.1699 8.94253 25.0223 8.59535 29.828 7.82507C31.7436 7.51808 33.6535 7.17532 35.5663 6.84868C35.5584 6.91281 35.5441 6.97696 35.5431 7.04135C35.5346 7.59235 35.1525 8.53919 36.3616 7.7911C36.5364 7.68285 36.918 7.6229 37.006 7.71987C37.1854 7.91773 36.9234 8.13601 36.8177 8.33754C35.4264 10.9894 35.0487 13.7958 35.5379 16.7334C35.5518 16.8167 35.5907 16.8976 35.6277 16.9749C35.6732 17.0702 35.7289 17.1607 35.7931 17.2767C36.0436 16.7915 36.2794 16.3346 36.5842 15.744C36.9096 17.3415 37.2021 18.7775 37.4944 20.2135C37.4879 20.3208 37.4543 20.4348 37.4791 20.5343C38.0089 22.6651 38.7238 24.7277 39.9815 26.5484C41.1747 28.2759 42.8919 29.9175 43.8275 30.2894C42.3478 28.5184 41.1551 26.6786 40.6386 24.477C40.9373 24.8571 41.1234 25.2993 41.3598 25.7128C42.2701 27.3054 43.305 28.7961 44.87 29.834C44.8868 29.8529 44.9034 29.8717 44.9201 29.8906C44.9172 29.8792 44.9181 29.863 44.9107 29.8574C44.8982 29.8478 44.8804 29.8447 44.8649 29.839C44.3984 29.0028 43.9557 28.1522 43.4592 27.3341C42.8139 26.2707 41.9733 23.6845 42.089 22.9495C42.974 24.8269 44.0825 26.5291 45.6078 27.9694C44.0514 24.7657 42.9751 21.4352 42.6254 17.8927Z" transform="translate(116 116.126)" fill="#FDDD48"/>
<path fill-rule="evenodd" clip-rule="evenodd" d="M60.6468 -2.09143e-07C61.3904 2.08124 61.7402 4.25195 62.0246 6.42698C62.311 8.61886 62.282 10.818 61.858 13.003C61.7918 13.344 61.6674 13.4252 61.3384 13.4968C56.3671 14.5783 51.7449 16.4758 47.5905 19.4457C47.5267 19.4915 47.4796 19.5607 47.4029 19.6422C48.0858 19.8076 48.726 19.951 49.3584 20.1235C49.5419 20.1734 49.731 20.306 49.7031 20.5335C49.694 20.6072 49.5243 20.7119 49.4245 20.716C45.5636 20.876 42.212 22.3357 39.2081 24.6908C35.6409 24.5882 32.0729 24.5099 28.5067 24.3768C23.8168 24.2016 19.1591 23.7272 14.5391 22.8673C10.9728 22.2036 7.471 21.3565 4.22684 19.683C2.82866 18.9616 1.51136 18.0882 0.651219 16.7265C-0.686314 14.6089 0.0833545 12.3262 2.52979 10.7173C4.90021 9.15845 7.57643 8.9007 10.2931 8.66057C17.6955 8.00627 25.0814 7.21101 32.4352 6.11346C38.6672 5.18328 44.8604 4.07874 50.9906 2.61651C54.237 1.84211 57.4626 1.00009 60.6468 -2.09143e-07Z" transform="translate(122.443 81.6095)" fill="#FDDD48"/>
<path fill-rule="evenodd" clip-rule="evenodd" d="M51.3652 2.7723C51.8293 2.39571 52.2933 2.01913 52.7575 1.64241C58.6211 1.52834 64.5175 2.22231 70.3339 0.950973C71.3836 0.721547 72.416 0.414436 73.4602 0.159413C75.5261 -0.345194 76.4086 0.327355 76.5062 2.4752C76.5228 2.84177 76.5087 3.20974 76.5088 3.57694C76.2274 4.85602 75.9735 6.1404 75.3779 7.32884C73.9775 10.1232 71.857 12.2669 68.6771 12.3329C59.7831 12.5174 50.8833 12.4101 41.9856 12.4181C41.9836 12.4038 38.9363 12.4139 38.2689 12.4139C27.2906 12.4133 16.3122 12.4352 5.33403 12.3944C3.14632 12.3863 1.10338 11.897 0.269873 9.44651C0.247162 9.37983 0.10315 9.35424 0.0156048 9.30961C0.0105246 8.89995 0.00532722 8.49041 1.66534e-07 8.08137C0.0428895 7.89606 0.086026 7.71023 0.129162 7.52442C0.691375 5.88423 1.10604 4.18675 1.9611 2.65911C2.67964 1.37535 3.88909 0.791006 5.21971 1.19193C7.72006 1.94523 10.2549 1.62505 12.7583 1.65027C22.5385 1.74889 32.3202 1.69261 42.1012 1.694C42.1866 2.51523 41.7676 3.23518 41.6284 4.01345C41.1907 6.46106 41.893 7.26724 44.3377 7.04161C47.597 7.24949 50.8193 7.64699 53.8749 8.89817C54.522 9.16308 55.1666 9.43384 55.8123 9.70192C54.2339 8.1412 52.3753 7.07862 50.3889 6.20692C53.0017 6.54891 55.3984 7.46914 57.6487 8.81729C55.9318 6.95844 54.007 5.43411 51.4724 4.857C51.4707 4.75712 51.469 4.65723 51.4672 4.55735C53.8421 5.04345 55.9162 6.15597 57.8287 7.6054C57.8446 7.61274 57.8604 7.6201 57.8763 7.62758C57.8579 7.62276 57.8396 7.61794 57.8212 7.61313C57.8597 7.30651 57.6173 7.15657 57.4521 6.96911C55.7731 5.06464 53.7348 3.67832 51.3652 2.7723Z" transform="translate(158.775 181.19)" fill="#4C4C4C"/>
<path fill-rule="evenodd" clip-rule="evenodd" d="M10.1254 22.3981C7.77528 22.3105 5.49665 21.9267 3.43391 20.7086C0.251368 18.8291 -0.756589 15.958 0.567497 12.5062C2.54934 7.33947 6.36136 3.91781 11.2287 1.58694C14.1891 0.169197 17.308 -0.474447 20.5917 0.393107C25.0131 1.5612 28.2962 5.42891 27.5217 10.1336C26.9922 13.3506 24.9865 15.6843 22.5528 17.6815C18.9447 20.6427 14.8292 22.3035 10.1254 22.3981Z" transform="translate(146.424 51.857)" fill="#FDDD48"/>
<path fill-rule="evenodd" clip-rule="evenodd" d="M8.59633e-07 20.4018C0.565007 19.8038 1.39393 19.8423 2.09065 19.5843C5.71519 18.2414 8.97786 16.3153 11.8995 13.7967C12.035 13.6799 12.2098 13.6088 12.3664 13.5164C12.4027 13.6788 12.4661 13.8404 12.4701 14.0035C12.4829 14.5349 12.5008 15.0623 12.7271 15.5573C13.1972 15.2736 13.6932 15.0249 14.1334 14.7007C17.4833 12.2325 20.0102 9.08335 21.815 5.34741C22.0188 4.92584 22.1717 4.47978 22.4855 3.70659C22.5941 4.73887 22.6668 5.43703 22.7416 6.13481C22.7551 6.26004 22.7775 6.38426 22.7958 6.50898C22.9077 6.46601 23.0397 6.44802 23.1288 6.37653C25.6277 4.37483 28.3907 2.82451 31.3806 1.70425C33.5998 0.872628 35.9207 0.394254 38.2615 0.0260368C39.0707 -0.101345 39.2303 0.242405 39.0401 0.974661C38.8786 1.59664 38.8184 2.24549 38.7265 2.88447C38.6695 3.2817 38.7884 3.40833 39.2354 3.30984C40.2642 3.08321 41.311 2.93947 42.3472 2.74542C43.0013 2.62285 43.2619 2.9093 43.3815 3.53432C44.2468 8.0569 44.7216 12.6103 44.5763 17.2208C44.5669 17.5198 44.3828 18.0021 44.7101 18.0917C44.9926 18.169 45.42 17.9451 45.7038 17.7429C46.2382 17.3626 46.7153 16.9022 47.2807 16.42C47.4363 19.2041 46.7563 21.7212 45.5807 24.1306C43.8519 27.674 41.1064 30.1654 37.5532 31.7915C37.002 32.0439 36.4513 32.4056 35.7864 32.3335C36.392 30.6147 37.6566 29.2834 38.5102 27.7069C40.2089 24.5693 41.0416 21.283 40.4609 17.7111C40.3703 16.1753 39.9934 14.6984 39.4845 13.258C38.5525 10.6199 37.303 8.20939 34.6311 6.8881C34.8751 5.96674 34.3603 5.88562 33.6824 6.07523C33.4279 6.14635 33.2142 6.36297 32.9819 6.51329C32.7697 6.49415 32.5576 6.47515 32.3454 6.456C32.125 6.347 31.9485 6.46374 31.7696 6.56768C30.9073 6.6739 30.0948 6.94693 29.3067 7.30108C26.5101 8.55759 24.0963 10.4285 21.5929 12.1471C18.876 14.0124 16.1579 15.8716 13.3257 17.5592C11.6124 18.3409 9.93738 19.2127 8.11445 19.7346C5.45318 20.4964 2.76606 20.9225 8.59633e-07 20.4018Z" transform="translate(166.192 148.798)" fill="#82786E"/>
<path fill-rule="evenodd" clip-rule="evenodd" d="M5.46421 4.20988C6.83087 6.23832 8.09132 8.3167 9.04954 10.5847C10.2528 13.4326 10.8086 16.4128 11.1722 19.451C11.2969 20.493 11.4572 21.5309 11.601 22.5705C11.6212 22.6244 11.6415 22.6784 11.6618 22.7323C11.6608 22.8893 11.6599 23.0464 11.6591 23.2034C11.5905 23.3825 11.4866 23.5563 11.458 23.7415C11.1894 25.4833 10.7754 27.1803 10.1924 28.8516C9.73255 30.1699 9.05817 31.385 8.56891 32.6835C8.51867 32.7902 8.46842 32.8968 8.41817 33.0034C8.4547 33.0077 8.52005 33.0233 8.52347 33.0145C8.56064 32.9202 8.58818 32.8221 8.61839 32.725C9.31548 32.3222 9.69943 31.6291 10.1407 31.0085C10.8295 30.0399 11.441 29.0165 12.0853 28.0161L12.1051 28.0327C12.0518 29.2605 11.5559 30.3621 11.0557 31.445C10.5506 32.5387 9.93606 33.5821 9.36941 34.6475C9.34936 34.6638 9.32919 34.6802 9.30914 34.6965C9.32107 34.6946 9.33743 34.6969 9.3439 34.6899C9.35495 34.678 9.35977 34.6603 9.36712 34.6451C10.6838 33.645 11.7175 32.3911 12.5466 30.978C13.0549 30.1113 13.4635 29.1863 13.917 28.2876L13.914 28.2852C13.5055 30.7414 12.1728 32.7549 10.7759 34.7471C11.7956 34.1637 12.5272 33.2926 13.3107 32.4804C13.5073 32.2764 13.8003 32.0405 13.8966 32.4022C14.0744 33.0697 14.3547 33.5621 15.0285 33.7943C15.0763 33.8108 15.0671 33.9915 15.0842 34.096C14.7991 34.296 14.484 34.2941 14.1601 34.2338C14.0169 33.8814 13.8333 33.4266 13.4003 33.5895C12.7108 33.8488 13.3003 34.2588 13.3942 34.605C10.8301 35.2228 8.27253 35.8687 5.70009 36.4488C3.81017 36.8751 1.90071 37.2151 -1.90325e-07 37.5934C0.0132005 36.4945 0.0224679 35.3957 0.0447895 34.2971C0.0474531 34.1672 0.121299 34.0388 0.162148 33.9097C0.256048 34.0107 0.362746 34.1024 0.441418 34.214C0.837166 34.7754 1.19092 35.3567 1.21553 36.2641C1.77001 35.0982 1.82635 33.9975 1.90907 32.9632C2.11678 30.3668 2.17566 27.7549 1.69882 25.1661C1.62219 24.7498 1.63538 24.3171 1.60697 23.8921C2.09153 23.9783 2.42828 24.3023 2.76921 24.6172C2.99062 24.8218 3.20582 25.033 3.50259 25.3165C3.77145 24.347 3.67211 23.3967 3.65345 22.4534C3.69545 20.0289 3.07563 17.7354 2.28807 15.4719C2.20077 15.2208 1.76124 14.9377 2.11803 14.7093C2.38614 14.5376 2.7701 14.7829 3.06497 14.9702C3.20188 15.0572 3.34309 15.1373 3.48242 15.2204C3.50741 15.0573 3.54852 14.8948 3.55512 14.7311C3.63454 12.7841 2.82732 8.5517 2.48803 6.63963C2.18491 7.64164 2.63242 6.28979 2.48803 6.63963C1.11009 6.50404 2.70335 6.71556 2.48803 6.63963C0.958725 5.56779 2.45543 1.94845 1.79272 -1.66047e-06C2.48208 0.640358 3.10837 1.30378 3.69622 1.99966C4.305 2.72002 4.87649 3.4718 5.46421 4.20988Z" transform="translate(222.051 126.633)" fill="#FDDD48"/>
<path fill-rule="evenodd" clip-rule="evenodd" d="M1.92228e-06 11.1032C2.83228 9.41564 5.55038 7.55642 8.26719 5.69111C10.7706 3.97246 13.1844 2.10158 15.981 0.845076C16.7691 0.490928 17.5817 0.217897 18.4429 0.112179C18.6561 0.185565 18.8473 0.14083 19.0198 1.62245e-06C19.2319 0.0191465 19.4441 0.0381463 19.6555 0.057421C20.2049 0.182272 20.7552 0.307254 21.3054 0.432105C23.9773 1.75339 25.2269 4.16386 26.1588 6.80198C26.6678 8.24241 27.0446 9.71935 27.1352 11.2551C21.4987 11.847 15.854 12.2406 10.1807 11.9925C6.98554 11.8529 3.79532 11.6544 0.620837 11.2519C0.410977 11.2253 0.206822 11.1538 1.92228e-06 11.1032Z" transform="translate(179.518 155.254)" fill="#FDDD48"/>
<path fill-rule="evenodd" clip-rule="evenodd" d="M3.10863e-07 -2.43367e-06C0.087546 0.0446213 0.231559 0.0702154 0.25427 0.136891C1.08776 2.58742 3.13071 3.07669 5.31843 3.0848C16.2966 3.12562 27.275 3.10368 38.2533 3.10432C38.5877 3.10432 41.9475 2.95918 42.3548 3.10825C42.8171 3.27733 42.7014 3.84939 40.288 3.88842C37.5635 4.34803 34.8162 4.1053 32.0792 4.1328C26.4653 4.18921 20.8507 4.19517 15.2366 4.22178C13.456 4.14877 11.675 4.0859 9.89562 4.25588C8.21302 4.2266 6.52814 4.24066 4.84834 4.156C3.032 4.06461 1.39915 3.57319 0.332824 1.8942C-0.0631968 1.27057 0.0771387 0.635036 3.10863e-07 -2.43367e-06Z" transform="translate(158.791 190.499)" fill="#CEBE86"/>
<path fill-rule="evenodd" clip-rule="evenodd" d="M2.24583e-06 9.4799C0.48952 8.18156 1.1639 6.9665 1.62372 5.64814C2.20675 3.97689 2.62077 2.27991 2.88938 0.538064C2.91793 0.352872 3.02185 0.179108 3.0905 3.24489e-06C3.52038 0.879291 3.77097 1.84275 4.39537 2.63166C5.41221 3.91631 6.87276 3.56457 7.83923 1.79344C7.93426 1.61941 7.91194 1.34258 8.20631 1.31799C7.99187 3.53681 7.18008 5.55498 6.05996 7.45007C5.75391 7.9676 5.62323 8.34419 6.09041 8.80696C6.27769 8.99253 6.41384 9.00317 6.57815 8.84499C6.92645 8.50973 7.59614 8.29285 6.97467 7.60863C6.77788 7.39189 6.88838 7.02266 7.12552 6.85242C7.39757 6.65709 7.47458 7.01188 7.59474 7.14903C7.86626 7.45882 8.12435 7.66847 8.50322 7.31242C8.657 7.16792 8.82423 7.15626 8.94324 7.33486C9.01835 7.44767 9.10744 7.68508 9.06404 7.72324C8.11165 8.55968 9.21833 8.93475 9.45737 9.49487C9.51384 9.62733 9.643 9.72898 9.73855 9.8447C9.53796 10.1816 9.14829 10.1038 8.85861 10.2452C8.71625 9.64962 8.32127 9.20295 7.83835 8.90939C7.60349 8.76653 7.32702 9.1473 7.11245 9.35518C6.50379 9.94496 7.36571 10.1753 7.42141 10.6034C7.11943 10.6999 6.81732 10.7963 6.51546 10.8926C6.49845 10.7881 6.5076 10.6074 6.45989 10.5909C5.78601 10.3587 5.50572 9.86625 5.32796 9.19877C5.23166 8.83714 4.93869 9.07302 4.74202 9.27696C3.95851 10.0892 3.22691 10.9603 2.20728 11.5437C3.60413 9.55153 4.93691 7.53804 5.34534 5.0818C5.37808 4.99941 5.41131 4.91714 5.44075 4.83374C5.44227 4.82957 5.40955 4.81347 5.3928 4.80294C5.37795 4.89662 5.36311 4.99041 5.34839 5.08422C4.89492 5.9829 4.48623 6.90795 3.97792 7.77455C3.14886 9.18773 2.11515 10.4416 0.798485 11.4417L0.800777 11.4441C1.36743 10.3787 1.98192 9.33527 2.48704 8.24163C2.98722 7.15864 3.48321 6.05704 3.53638 4.82918C3.6573 4.70813 3.74141 4.58403 3.54247 4.40822C3.53269 4.56185 3.52471 4.68734 3.51672 4.8127C2.8724 5.81303 2.26083 6.83644 1.57211 7.80509C1.13081 8.42567 0.746855 9.11877 0.0497642 9.52159L2.24583e-06 9.4799Z" transform="translate(230.619 149.836)" fill="#CEBE86"/>
<path fill-rule="evenodd" clip-rule="evenodd" d="M1.59456 11.4185C1.83157 11.0756 1.62139 10.8155 1.43792 10.5459C1.21409 10.2168 1.43754 9.9338 1.6264 9.74252C1.85365 9.51234 1.91126 9.85635 2.02748 9.97359C2.26475 10.2128 2.34183 10.7758 2.89067 10.3497C3.26129 10.0619 3.78228 9.86789 3.20889 9.29597C3.08968 9.17695 3.08416 8.97529 3.26611 8.84499C3.63813 9.19508 4.00901 9.54644 4.3823 9.89513C4.77728 10.2641 4.86236 9.74898 5.08136 9.63631C5.26655 9.54086 5.36679 9.37938 5.18325 9.16492C4.96888 8.91432 4.77291 8.98125 4.58322 9.1781C4.27546 9.4974 4.11153 9.26316 3.92139 9.03196C3.74338 8.81546 3.68774 8.44394 3.28399 8.4892C2.25281 7.61954 1.74052 6.4074 1.19937 5.23303C0.53863 3.79894 0.153341 2.27802 0 0.454665C0.779881 2.47677 1.60976 4.20188 2.87048 5.68274C2.97554 5.80621 3.12481 5.89214 3.25366 5.99532C3.28462 6.22158 3.40929 6.35745 3.63812 6.39295C3.651 6.6533 3.76602 6.79957 4.04808 6.75952C4.0267 7.06537 4.17167 7.20962 4.54851 7.22444C4.34975 7.03621 4.20149 6.89565 4.05316 6.75521C4.03298 6.52401 3.90503 6.39206 3.67931 6.34998C3.64784 6.12664 3.52869 5.9848 3.30075 5.94436C2.73618 4.67696 1.88074 3.54897 1.50662 2.18954C1.30894 1.4711 1.09127 0.758111 0.964509 0C2.22592 2.25597 3.68704 4.33307 5.69401 5.99063C4.49433 4.11417 3.33259 2.22605 2.88513 0.0051969L2.87866 0.0106473C3.94454 1.26525 4.76992 2.69986 5.89195 3.91973C6.71225 4.81157 7.58374 5.63179 8.51298 6.39979C9.16606 6.75521 9.52703 7.06229 9.88091 7.60784C9.68386 7.6342 7.6172 9.97359 7.6172 9.97359C7.6172 9.97359 7.08531 10.4839 7.49806 10.8233C7.72024 11.006 7.14601 11.9483 6.99738 12.2392C5.7354 12.7013 5.11361 11.8607 4.48154 11.0183C4.28334 10.7542 4.15735 10.3136 3.64677 10.6965C3.23833 11.0027 2.86353 11.2479 3.24233 11.8081C2.6482 11.8676 2.12765 11.6165 1.59456 11.4185Z" transform="translate(147.461 148.292)" fill="#CEBE86"/>
<path fill-rule="evenodd" clip-rule="evenodd" d="M0.941829 8.84118C9.8395 8.83319 18.7393 8.94041 27.6333 8.756C30.8133 8.68996 32.9337 6.5463 34.3341 3.75189C34.9297 2.56346 35.1836 1.27906 35.465 1.44499e-06C35.6828 4.6227 32.1323 10.0915 26.5855 9.91847C24.8192 9.86333 23.048 9.96321 21.279 9.99224C19.509 9.83582 17.7386 9.84444 15.9681 9.98362C12.2158 9.94673 8.46294 9.93357 4.71126 9.86169C3.14464 9.83152 1.58029 9.67662 0.0150675 9.57877C-0.131985 8.76133 0.843486 9.35097 0.941829 8.84118Z" transform="translate(199.819 184.767)" fill="#CEBE86"/>
<path fill-rule="evenodd" clip-rule="evenodd" d="M0.378275 0.106534C2.14881 -0.0326458 3.9192 -0.0412635 5.68923 0.115153C6.35828 2.05855 5.95327 3.95579 4.68393 4.8243C2.85948 6.07231 0.331598 4.96423 0.0820192 2.76506C-0.01887 1.87639 -0.117076 0.947415 0.378275 0.106534ZM1.52251 2.4696C1.57288 3.42177 2.15298 3.92182 3.0555 3.91371C3.95751 3.90572 4.50018 3.31251 4.49994 2.41751C4.49956 1.48866 3.93619 0.895962 3.00348 0.910421C2.08295 0.924608 1.56451 1.49259 1.52251 2.4696Z" transform="translate(215.409 194.644)" fill="#4C4C4C"/>
<path fill-rule="evenodd" clip-rule="evenodd" d="M0.269897 0.10849C2.0493 -0.0614907 3.83023 0.00138291 5.61091 0.074393C6.32019 2.18192 5.91759 3.97637 4.53253 4.88037C2.66444 6.09986 0.145036 4.82751 0.0300882 2.595C-0.012931 1.75818 -0.0589901 0.913132 0.269897 0.10849ZM2.93609 0.861786C2.04448 1.01414 1.43456 1.51254 1.44218 2.42428C1.44992 3.33703 2.03852 3.92581 2.96909 3.9097C3.88633 3.89399 4.48496 3.33893 4.46289 2.39386C4.44143 1.47489 3.85129 0.984482 2.93609 0.861786Z" transform="translate(168.417 194.647)" fill="#4C4C4C"/>
<path fill-rule="evenodd" clip-rule="evenodd" d="M0.156992 1.26155C-0.221814 0.701304 0.15299 0.456157 0.561432 0.149917C1.07201 -0.233006 1.198 0.207585 1.3962 0.471745C2.02826 1.31414 2.65005 2.15478 3.91203 1.69263C4.03499 1.9635 4.15818 2.23412 4.281 2.50436C2.88581 2.15695 1.4401 1.9786 0.156992 1.26155Z" transform="translate(150.547 158.839)" fill="#FDDD48"/>
<path fill-rule="evenodd" clip-rule="evenodd" d="M0.525499 1.72536C0.469799 1.29719 -0.392115 1.06688 0.216547 0.47709C0.431111 0.269209 0.707579 -0.111556 0.942437 0.0312973C1.42535 0.324856 1.82034 0.771534 1.9627 1.36715C1.48372 1.48644 1.00461 1.60596 0.525499 1.72536Z" transform="translate(237.515 158.714)" fill="#FDDD48"/>
<path fill-rule="evenodd" clip-rule="evenodd" d="M0.214688 -3.24489e-06C0.171552 0.185812 0.128403 0.371643 0.0855262 0.556952C-0.0319678 0.333743 -0.0616691 0.131441 0.214688 -3.24489e-06Z" transform="translate(158.689 188.714)" fill="#CEBE86"/>
<path fill-rule="evenodd" clip-rule="evenodd" d="M0.123588 -4.86734e-06C0.179925 0.0252144 0.216461 0.0414405 0.252879 0.0577948C0.204793 0.0847923 0.15937 0.123458 0.107853 0.134607C0.0766444 0.141331 0.0362886 0.105596 -3.94923e-07 0.0888653C0.0437854 0.0574158 0.0874286 0.0259802 0.123588 -4.86734e-06Z" transform="translate(158.271 193.272)" fill="#CEBE86"/>
<path fill-rule="evenodd" clip-rule="evenodd" d="M1.82712e-06 0.0945582C0.0836236 0.0628751 0.167361 0.0314365 0.250723 1.26754e-08C0.20999 0.14589 0.150108 0.239683 1.82712e-06 0.0945582Z" transform="translate(241.305 159.371)" fill="#CEBE86"/>
<path fill-rule="evenodd" clip-rule="evenodd" d="M0.0876556 0.285888C0.0577072 0.203117 0.0264987 0.120723 0.000110284 0.036823C-0.00204652 0.0297881 0.0285364 0.0124863 0.043881 -5.94158e-10C0.0672291 0.0881572 0.0905792 0.176379 0.114174 0.264342C0.114551 0.264147 0.0876556 0.285888 0.0876556 0.285888Z" transform="translate(208.454 46.1315)" fill="#A79F94"/>
<path fill-rule="evenodd" clip-rule="evenodd" d="M0.159992 0.116167C0.106696 0.0986058 0.0534142 0.0810574 7.16889e-07 0.0635609C0.0190352 0.0423264 0.0381865 0.0211566 0.057221 -5.44644e-08C0.0950301 0.0346684 0.132838 0.0693369 0.170777 0.103876C0.170907 0.103746 0.159992 0.116167 0.159992 0.116167Z" transform="translate(197.733 44.7405)" fill="#A79F94"/>
<path fill-rule="evenodd" clip-rule="evenodd" d="M-3.66692e-06 0.00406098L0.0173872 0.0183762L0.00393764 -3.05476e-06L-3.66692e-06 0.00406098Z" transform="translate(242.719 159.069)" fill="#CEBE86"/>
<path fill-rule="evenodd" clip-rule="evenodd" d="M0.41172 16.0634C0.414253 14.6258 -0.113071 13.2526 0.0221968 11.7809C0.357672 8.13228 1.91998 5.17631 4.75619 2.87828C4.87889 2.77884 5.06528 2.75786 5.22199 2.70038C5.21754 2.84044 5.2164 2.98063 5.20803 3.12043C5.19408 3.35411 5.17542 3.58745 5.15335 3.8975C6.31813 2.97517 7.41453 2.10273 8.51638 1.23699C8.84514 0.978676 9.20637 0.79469 9.64806 0.877967C9.56331 1.19669 9.48476 1.51725 9.39086 1.83325C9.35114 1.9671 9.16831 2.11357 9.35445 2.2189C9.43046 2.26193 9.60885 2.12821 9.73903 2.07123C11.2902 1.39266 12.646 0.179056 14.5126 0.320832C14.4924 0.374892 14.4851 0.414688 14.4647 0.446189C14.2054 0.847686 13.4231 1.21381 13.6435 1.51846C13.9043 1.87939 14.5197 1.33752 14.9801 1.20436C16.1565 0.864092 17.2868 0.323558 18.48 0.0918469C20.5199 -0.304134 22.0671 0.601905 23.2068 2.39229C23.3999 1.76055 23.1369 1.33333 22.9592 0.887599C22.8974 0.732324 22.8696 0.563485 22.8263 0.400929C23.0311 0.4245 23.2601 0.396815 23.437 0.479832C24.7945 1.11664 25.8169 2.16159 26.7939 3.26277C26.9475 3.43605 27.0748 3.79431 27.3273 3.67896C27.4585 3.61907 27.4466 3.21568 27.4716 2.96471C27.4908 2.77261 27.4767 2.57532 27.4589 2.38201C27.4291 2.05682 27.3847 1.73297 27.3465 1.40855C27.7327 1.53434 28.1645 1.58809 28.4972 1.7985C29.8862 2.67697 30.855 3.91498 31.43 5.45408C31.5103 5.66912 31.4943 6.03049 31.7661 5.99158C31.9488 5.96547 32.1265 5.65067 32.2341 5.42988C32.3349 5.22353 32.4116 4.95917 32.376 4.7404C32.1749 3.50671 32.6867 3.94401 33.2289 4.35216C35.9241 6.3811 38.0022 8.79399 38.1329 12.3733C38.1593 13.0964 38.0077 13.826 37.9382 14.5528C37.9157 14.6699 37.8934 14.7867 37.8708 14.9036C37.82 15.0153 37.7693 15.127 37.7185 15.2388C37.094 17.398 35.7417 19.0204 33.935 20.2881C27.9846 24.4635 18.5611 24.5957 11.76 23.3767C8.65064 22.8193 5.63932 22.0188 3.1467 19.9025C1.90119 18.8451 1.24305 17.3995 0.41172 16.0634ZM22.4588 12.5348C22.3728 11.0383 20.5642 9.24581 19.1223 9.37118C17.1437 9.54325 16.318 11.1186 15.4669 12.6162C14.6824 13.5816 14.7505 14.0509 15.8813 14.5359C17.8693 15.3887 19.9232 15.366 21.9237 14.6313C23.2711 14.1364 23.3405 13.6372 22.4588 12.5348ZM26.9781 5.87854C26.6971 5.87854 26.414 5.85667 26.1352 5.88221C24.7163 6.01214 23.3548 7.04207 23.0631 8.27862C22.7698 9.52195 23.3608 10.4599 24.2851 11.2063C24.8208 11.6389 25.4512 11.9175 26.1039 12.1616C29.3006 13.3571 32.6002 14.3334 35.3931 16.4128C35.4823 16.4791 35.616 16.4857 35.7291 16.5201C35.7305 16.3936 35.7632 16.2578 35.7288 16.1419C35.1178 14.0846 34.6881 11.9541 33.409 10.1576C31.8111 7.91344 29.9903 5.99179 26.9781 5.87854ZM11.4616 5.85115C10.6165 5.77663 9.72646 6.05295 8.91656 6.51965C5.43654 8.52502 3.85621 11.7944 2.99316 15.5258C2.91779 15.8521 2.86869 16.1846 2.8074 16.5143C3.22269 16.5499 3.42672 16.1889 3.70852 16.0009C6.42636 14.1881 9.52483 13.2539 12.5389 12.1191C13.9184 11.5996 15.2268 10.8878 15.4735 9.26887C15.775 7.29051 14.0735 5.85496 11.4616 5.85115ZM19.3351 17.9706C21.4115 18.067 23.4232 17.7066 25.4058 17.1443C27.0943 16.6654 28.0744 15.6997 27.9859 14.6189C27.975 14.4865 28.0481 14.2652 27.8257 14.2737C27.7358 14.2771 27.5973 14.4629 27.5766 14.5822C27.4581 15.268 27.0422 15.716 26.4821 16.0785C25.3073 16.8385 23.9702 17.0782 22.626 17.2532C18.8079 17.75 15.0577 17.5818 11.4531 16.0406C11.1558 15.9135 10.7503 15.432 10.5833 15.7263C10.4465 15.9676 11.0367 16.2476 11.3662 16.4274C13.8583 17.7875 16.5965 17.8882 19.3351 17.9706ZM19.9348 19.047C18.6059 18.8272 17.2278 18.8913 15.8942 18.5723C17.1566 19.3327 18.5136 19.375 19.9348 19.047Z" transform="translate(182.807 53.3756)" fill="white"/>
<path fill-rule="evenodd" clip-rule="evenodd" d="M18.7381 29.0263C18.4677 29.3769 18.1974 29.7275 17.8231 30.2129C17.7282 27.974 17.8869 25.9243 18.0962 23.873C18.3026 21.848 18.7017 19.8693 19.3391 17.9368C19.3824 17.8056 19.4273 17.5943 19.361 17.5238C19.2045 17.357 19.0664 17.5736 18.9142 17.6247C18.2271 17.855 17.8962 18.525 17.2627 18.9739C17.8853 15.4719 19.054 12.2568 20.581 9.1611C20.6403 9.0408 20.6597 8.901 20.6976 8.77032C20.5714 8.76437 20.437 8.72684 20.32 8.75701C16.8229 9.65937 13.1248 9.84938 9.83632 11.4796C5.10675 13.8241 1.49858 17.1476 0.622971 22.6904C0.523238 23.3216 0.29954 23.9334 0.133453 24.5539C-0.353778 20.7459 0.501539 17.2373 2.56162 14.0249C3.07943 13.2175 3.758 12.5129 4.4084 11.7042C3.88171 11.7516 3.36783 11.8065 2.85244 11.837C2.74573 11.8433 2.63356 11.7594 2.52381 11.7171C2.58534 11.6334 2.63483 11.5368 2.70994 11.468C6.13744 8.32567 10.1674 6.54478 14.8028 6.1355C14.8889 6.12789 14.9906 6.15654 15.0598 6.12029C15.4151 5.93498 16.1795 6.1076 16.1219 5.86298C16.0153 5.41084 15.4013 5.28536 14.8965 5.21641C14.5877 5.1742 14.0981 5.39007 14.0108 5.09422C13.9152 4.76999 14.4433 4.69571 14.6905 4.52067C18.3614 1.92286 22.573 0.86091 26.9472 0.30763C28.2626 0.141206 29.5953 0.110403 31.1681 -1.29922e-06C29.8001 1.13787 28.649 2.15012 27.7367 3.39852C25.7051 6.17873 24.2607 9.2397 23.2089 12.5111C22.7208 14.0291 22.3099 15.5537 22.0123 17.1193C21.8885 17.7701 22.0768 17.8516 22.6012 17.6774C23.6164 17.3404 24.6272 16.9895 25.7998 16.5898C25.1397 17.4433 24.5433 18.1932 23.9697 18.9599C22.254 21.2528 21.0907 23.8176 20.2341 26.536C20.109 26.9331 20.2057 27.0465 20.5943 27.0337C21.0472 27.0189 21.5009 27.0303 22.0949 27.0303C20.7583 28.7506 19.964 30.667 18.9749 32.4765C19.1375 31.315 19.4891 30.1739 19.3527 28.9802C19.5469 28.7112 20.2387 29.0773 20.1084 28.4569C20.006 27.9692 19.5234 28.1908 19.2446 28.2417C18.8818 28.3079 18.4844 28.4956 18.7381 29.0263Z" transform="translate(159.052 107.381)" fill="#82786E"/>
<path fill-rule="evenodd" clip-rule="evenodd" d="M33.5233 5.05999C35.33 3.79227 36.6823 2.16982 37.3068 0.0106432C37.3871 0.00798244 37.4674 0.00532254 37.5477 0.00266173L37.5443 -9.50652e-08C37.2997 3.63098 35.6059 6.34123 32.4681 8.21516C28.5143 10.5765 24.6289 13.0395 22.0769 17.056C22.0302 17.1294 21.9215 17.1635 21.8417 17.2159C21.7939 17.1283 21.7267 17.046 21.7017 16.9525C21.3688 15.7055 20.621 14.7221 19.7202 13.8381C19.4234 13.547 19.1791 13.4856 18.9138 13.9359C18.1983 15.1505 17.7448 16.4542 17.463 18.0262C16.7911 16.9011 16.3513 15.8299 15.5711 14.9821C15.3676 14.761 15.2119 14.4959 15.0063 14.2771C14.689 13.9392 14.3474 13.6239 14.0163 13.2991C13.9277 13.7071 13.8369 14.1148 13.7515 14.5235C13.6728 14.9002 13.4415 14.8596 13.2366 14.6736C10.8036 12.4639 7.75764 11.1188 5.25855 8.99646C2.81072 6.91758 0.936014 4.47441 0.0472013 1.34936C0.0010118 1.18667 0.0143449 1.00712 7.99363e-07 0.835366C0.831334 2.17135 1.48949 3.61691 2.73496 4.67441C5.22759 6.79069 8.23889 7.5912 11.3483 8.14853C12.408 8.33848 13.4848 8.43266 14.5537 8.57057C18.4493 8.9417 27.9535 8.96832 33.5233 5.05999Z" transform="translate(183.219 68.6038)" fill="#82786E"/>
<path fill-rule="evenodd" clip-rule="evenodd" d="M9.69313 24.6805C9.10541 23.9424 8.53392 23.1906 7.92514 22.4703C7.3373 21.7744 6.711 21.111 6.02164 20.4706C6.68435 22.4191 7.37916 24.3418 7.40797 26.4169C7.30583 26.4714 7.20394 26.5259 7.10181 26.5803C6.90324 26.4019 6.71164 26.1847 6.4146 26.2805C6.38605 26.2897 6.45939 26.6142 6.48553 26.7925C6.12987 26.8377 6.15512 27.0344 6.26475 27.2948C6.29165 27.3587 6.20994 27.4683 6.17809 27.5568C6.09942 27.5082 5.98384 27.4781 5.94869 27.4078C5.83171 27.1733 5.67057 26.9523 5.42416 27.1676C5.11989 27.4337 5.51044 27.5276 5.62514 27.694C5.74479 27.8677 5.8317 28.0639 5.93284 28.2502C5.54598 28.2795 5.09439 28.0905 4.8287 28.5432C4.62924 28.8829 4.83619 29.1517 5.02245 29.4161L5.0203 29.4185C4.02097 29.4539 3.87683 28.8701 3.76784 28.0022C3.39899 25.0681 2.30107 22.3183 1.43052 19.5122C1.4068 19.4358 1.40984 19.351 1.3761 19.0631C2.13219 19.8645 2.75824 20.537 3.39684 21.1977C3.53793 21.3437 3.72331 21.4469 3.88838 21.5698C3.95042 21.3939 4.05726 21.2206 4.06791 21.0416C4.27447 17.5729 4.43715 14.1076 3.94433 10.643C3.42385 6.98365 1.99718 3.67944 0.134659 0.531142C0.0544671 0.395648 -0.0413243 0.146832 0.0189494 0.0744446C0.18453 -0.124558 0.316876 0.129712 0.439321 0.208174C3.99954 2.49138 6.87774 5.46731 9.32012 8.89675C10.4414 10.4712 11.475 12.0913 12.2948 13.8434L12.3012 13.8381C11.37 13.3706 10.7223 12.478 9.72005 12.119C9.46235 12.0267 9.1964 11.9575 8.93414 11.8777C8.90813 11.8638 8.88225 11.8497 8.85623 11.8357C8.86994 11.862 8.88352 11.8883 8.89722 11.9146C9.46528 12.9649 10.0848 13.9912 10.5898 15.0709C11.4048 16.8138 11.9743 18.6421 12.0296 20.5831C12.0605 21.6677 12.2309 22.7598 11.9547 23.9561C11.0103 22.8026 10.1114 21.7044 9.15771 20.5395C9.34267 21.9706 9.51791 23.3256 9.69313 24.6805Z" transform="translate(217.822 106.162)" fill="#82786E"/>
<path fill-rule="evenodd" clip-rule="evenodd" d="M5.15537 -2.24354e-06C5.50505 3.54251 6.58141 6.87296 8.13775 10.0767C6.61237 8.63636 5.50391 6.9342 4.6189 5.05671C4.50319 5.79176 5.34379 8.37791 5.98912 9.44137C6.48561 10.2594 6.9283 11.1101 7.39485 11.9463L7.39993 11.9412C5.83495 10.9033 4.79997 9.41259 3.88971 7.82005C3.65333 7.40658 3.46718 6.96433 3.1685 6.5842C3.68505 8.78578 4.87775 10.6256 6.35745 12.3966C5.42181 12.0247 3.70457 10.3831 2.51137 8.6556C1.2537 6.83492 0.538846 4.77237 0.00897306 2.64151C-0.0157653 2.54201 0.0177955 2.42807 0.0243309 2.3207C0.0453273 2.32602 0.0721701 2.32487 0.0860595 2.3378C0.693136 2.89781 1.14776 3.8141 2.19251 3.4725C3.35044 3.09376 4.09132 2.20434 4.64732 1.16065C4.84538 0.789044 4.98763 0.387736 5.15537 -2.24354e-06ZM2.781 5.23454C2.67709 5.69681 2.73558 6.01332 3.06826 6.26403C3.22141 5.85298 2.85257 5.63889 2.781 5.23454Z" transform="translate(153.47 134.019)" fill="#CEBE86"/>
<path fill-rule="evenodd" clip-rule="evenodd" d="M6.5283 3.97802C6.86758 5.89009 7.09357 7.8118 7.01415 9.75874C7.00755 9.9225 6.96643 10.085 6.94143 10.2481C6.80211 10.165 6.66089 10.0849 6.52399 9.99792C6.22912 9.81058 5.84517 9.56532 5.57706 9.73695C5.22026 9.96536 5.65979 10.2485 5.74708 10.4996C6.53464 12.7631 7.15447 15.0565 7.11247 17.4811C5.73909 14.1888 4.10445 11.0509 2.01521 8.13492C1.72795 7.73388 1.8901 6.81567 1.32408 6.32741C1.1061 6.13944 0.906896 5.58553 0.515331 6.18089C0.399994 6.35643 0.351404 6.15642 0.313088 6.0971C0.214758 5.94449 -0.0693461 5.90203 0.0156659 5.65232C0.037234 5.58894 0.184298 5.55523 0.279575 5.53191C1.09607 5.33253 1.36912 6.05261 1.83517 6.45074C2.10416 6.68068 1.3652 5.02999 1.77985 4.70499C2.07764 4.47152 2.2299 6.17277 2.2299 6.17277C2.2299 6.17277 1.23704 3.68374 2.04262 5.86337C2.31454 5.87731 2.56804 4.01773 2.56804 4.01773C2.19145 4.23587 2.83462 4.13968 2.56804 4.01773C2.74729 2.03562 5.3514 0 5.3514 0C5.3514 0 6.28836 3.84633 6.5283 3.97802Z" transform="translate(218.592 131.605)" fill="#82786E"/>
<path fill-rule="evenodd" clip-rule="evenodd" d="M7.1345 0.631858C9.66925 1.20897 11.5941 2.7333 13.3109 4.59215C11.0606 3.244 8.66395 2.32376 6.05118 1.98178C8.03753 2.85347 9.89611 3.91603 11.4745 5.47676C10.8288 5.20868 10.1843 4.93793 9.53716 4.67302C6.48156 3.42184 3.25924 3.02434 2.03013e-07 2.81646C1.86937 2.06886 3.53407 0.936963 5.30257 6.71794e-06C5.3027 6.71794e-06 5.34405 0.0283995 5.34405 0.0283995C5.94092 0.229544 6.53765 0.4307 7.1345 0.631858Z" transform="translate(203.113 185.415)" fill="#CEBE86"/>
<path fill-rule="evenodd" clip-rule="evenodd" d="M1.72486 -3.85331e-06C4.09453 0.906035 6.13278 2.29233 7.81182 4.19681C7.97702 4.38427 8.21936 4.53423 8.18092 4.84084L8.18827 4.83324C6.27588 3.38368 4.20174 2.27116 1.82699 1.78532C1.27847 1.41102 0.655346 1.47339 0.0414872 1.48124C0.0414872 1.48124 0.000117316 1.45285 3.80649e-07 1.45285C0.41594 0.780167 1.14652 0.480266 1.72486 -3.85331e-06Z" transform="translate(208.416 183.962)" fill="#CEBE86"/>
<path fill-rule="evenodd" clip-rule="evenodd" d="M0.523146 0.648098C0.163687 0.582434 0.0595067 0.31042 -4.18714e-07 0.00241523L0.00215659 -1.01403e-06C0.366436 0.0169892 0.730848 0.0338355 1.29649 0.0600802C0.908486 0.305978 0.493438 0.243494 0.518943 0.651766L0.523146 0.648098Z" transform="translate(222.842 135.578)" fill="#82786E"/>
<path fill-rule="evenodd" clip-rule="evenodd" d="M-3.86993e-06 0.350785C0.0225777 0.233917 0.0449144 0.11705 0.067379 6.21093e-07C0.256178 0.220173 0.294883 0.444459 0.0852695 0.67534L0.0887032 0.678002C0.0591316 0.568921 0.0295678 0.459853 -3.86993e-06 0.350785Z" transform="translate(220.678 67.9285)" fill="#82786E"/>
<path fill-rule="evenodd" clip-rule="evenodd" d="M-2.85487e-06 0.00533156C0.0303224 0.0489299 0.0607818 0.0924162 0.0911071 0.136015C0.0629387 0.090638 0.0346425 0.0453895 0.00635716 -1.26754e-08C0.00647409 1.29669e-05 -2.85487e-06 0.00533156 -2.85487e-06 0.00533156Z" transform="translate(230.117 120)" fill="#82786E"/>
<path fill-rule="evenodd" clip-rule="evenodd" d="M0.06078 0.161736C0.0404852 0.107871 0.0201809 0.0538636 3.04519e-06 -1.63512e-06C0.0203108 0.0540064 0.0404722 0.107871 0.06078 0.161736Z" transform="translate(233.652 149.203)" fill="#CEBE86"/>
<path fill-rule="evenodd" clip-rule="evenodd" d="M0.0178781 0.00378307C0.421617 -0.0414637 0.477252 0.330048 0.65528 0.546534C0.845417 0.777726 1.00935 1.01197 1.31711 0.692681C1.5068 0.495833 1.70277 0.428915 1.91714 0.679499C2.10068 0.89396 2.00044 1.05545 1.81525 1.15089C1.59626 1.26358 1.51118 1.7787 1.11619 1.40972C0.742904 1.06102 0.372023 0.70965 -4.59951e-08 0.359565C0.0058857 0.241061 0.0119144 0.122429 0.0178781 0.00378307Z" transform="translate(150.728 156.778)" fill="white"/>
<path fill-rule="evenodd" clip-rule="evenodd" d="M0.08017 0.879012C-0.173463 0.34829 0.223923 0.160564 0.586683 0.094407C0.865574 0.0434492 1.34812 -0.178112 1.4505 0.309635C1.5808 0.929967 0.889039 0.563903 0.694784 0.832866C0.422623 -0.0470584 0.307414 1.1604 0.08017 0.879012Z" transform="translate(177.71 135.528)" fill="#A79F94"/>
<path fill-rule="evenodd" clip-rule="evenodd" d="M0.093951 0.126761C0.0626773 0.0844214 0.0313387 0.0422087 4.203e-08 -8.11223e-07C0.0291819 0.0441038 0.058364 0.0880936 0.0875459 0.132211C0.0874809 0.132198 0.093951 0.126761 0.093951 0.126761Z" transform="translate(150.252 148.171)" fill="#CEBE86"/>
<path fill-rule="evenodd" clip-rule="evenodd" d="M4.75811e-08 0.00506284C0.0154745 0.0107609 0.0332478 0.0138113 0.0457989 0.0234421C0.0531528 0.0290233 0.0522708 0.0452504 0.0551942 0.0566595C0.0384464 0.0377742 0.0218271 0.0188859 0.00507933 6.21093e-07L4.75811e-08 0.00506284Z" transform="translate(160.865 145.96)" fill="#CEBE86"/>
<path fill-rule="evenodd" clip-rule="evenodd" d="M0.15772 0.169724C0.10506 0.113315 0.0525302 0.0567864 2.37906e-07 8.23898e-07C0.0525432 0.0562673 0.105073 0.113055 0.15772 0.169724Z" transform="translate(157.849 156.443)" fill="#A79F94"/>
<path fill-rule="evenodd" clip-rule="evenodd" d="M-1.11023e-06 0.00863296C0.613858 0.000780317 1.23698 -0.06159 1.7855 0.312715C1.78715 0.412346 1.78893 0.512229 1.79058 0.612107C1.19359 0.41095 0.59685 0.20979 -1.11023e-06 0.00863296Z" transform="translate(208.457 185.434)" fill="#82786E"/>
<path fill-rule="evenodd" clip-rule="evenodd" d="M3.86993e-06 0.00773177C0.0184017 0.0125472 0.0366653 0.0173663 0.0550632 0.0221817C0.0391989 0.0147054 0.0233463 0.00734623 0.00748204 -2.02806e-07C0.00735211 0.000129593 3.86993e-06 0.00773177 3.86993e-06 0.00773177Z" transform="translate(216.596 188.795)" fill="#CEBE86"/>
<path fill-rule="evenodd" clip-rule="evenodd" d="M1.64998 0.89605C1.09969 0.7712 0.549402 0.646217 4.18714e-07 0.521367C0.233079 0.370907 0.446758 0.154294 0.701287 0.0831793C1.37921 -0.106439 1.89398 -0.0253175 1.64998 0.89605Z" transform="translate(199.173 154.79)" fill="#A79F94"/>
<path fill-rule="evenodd" clip-rule="evenodd" d="M0.576816 0.0437021C0.404388 0.18453 0.213175 0.229266 1.42109e-06 0.155879C0.179926 0.0514325 0.356418 -0.0653003 0.576816 0.0437021Z" transform="translate(197.961 155.21)" fill="#A79F94"/>
<path fill-rule="evenodd" clip-rule="evenodd" d="M0.200223 0.041564C0.170028 0.138651 0.142492 0.23676 0.105307 0.331069C0.101877 0.339817 0.0365377 0.324232 1.8398e-06 0.319923C0.0502451 0.213322 0.100483 0.106715 0.150739 -3.27206e-06C0.150479 -0.000146047 0.200223 0.041564 0.200223 0.041564Z" transform="translate(230.469 159.316)" fill="#CEBE86"/>
<path fill-rule="evenodd" clip-rule="evenodd" d="M0.0579902 -1.01403e-06C0.0506363 0.015211 0.0458015 0.0329545 0.0347706 0.0448698C0.0283002 0.0518398 0.0119242 0.049553 -3.24821e-06 0.051461C0.0200447 0.0351067 0.0402262 0.0187565 0.0602741 0.00241523L0.0579902 -1.01403e-06Z" transform="translate(231.36 161.278)" fill="#CEBE86"/>
<path fill-rule="evenodd" clip-rule="evenodd" d="M3.05788e-06 0.404473C0.00799364 0.279116 0.0159818 0.153628 0.0257524 2.02806e-06C0.224698 0.17581 0.140586 0.29989 0.019662 0.420951C0.0197919 0.421081 3.05788e-06 0.404473 3.05788e-06 0.404473Z" transform="translate(234.136 154.244)" fill="#FDDD48"/>
<path fill-rule="evenodd" clip-rule="evenodd" d="M0.00305575 0.28127C0.0177766 0.187467 0.032614 0.0936697 0.0474648 -3.86599e-06C0.0642126 0.0105226 0.0969518 0.0266178 0.0954187 0.0307973C0.0659769 0.114204 0.0327445 0.196473 2.62648e-06 0.278854L0.00305575 0.28127Z" transform="translate(235.965 154.639)" fill="#FDDD48"/>
<path fill-rule="evenodd" clip-rule="evenodd" d="M0.041369 -1.01403e-06C0.266898 0.0422085 0.394865 0.174157 0.415043 0.405349L0.409897 0.409793C0.127901 0.449719 0.0128761 0.303452 2.08564e-07 0.0430952L0.041369 -1.01403e-06Z" transform="translate(151.1 154.642)" fill="#FDDD48"/>
<path fill-rule="evenodd" clip-rule="evenodd" d="M0.384458 0.448201C0.155628 0.412714 0.0309617 0.276826 -2.39492e-07 0.0505666C0.0161758 0.0347185 0.0317154 0.0179895 0.0467611 -2.02806e-07C0.275019 0.0400548 0.394163 0.1819 0.425632 0.405239C0.425827 0.405109 0.384458 0.448201 0.384458 0.448201Z" transform="translate(150.715 154.237)" fill="#FDDD48"/>
<path fill-rule="evenodd" clip-rule="evenodd" d="M0.00712272 -2.85196e-06C0.155449 0.140436 0.30371 0.281009 0.502474 0.469239C0.12563 0.454403 -0.0193303 0.310157 0.00204294 0.00430677C0.00197797 0.00443657 0.00712272 -2.85196e-06 0.00712272 -2.85196e-06Z" transform="translate(151.507 155.047)" fill="#FDDD48"/>
<path fill-rule="evenodd" clip-rule="evenodd" d="M2.23314e-06 1.55946C0.041995 0.582446 0.560445 0.0144601 1.48097 0.000260487C2.41369 -0.0141858 2.97704 0.578517 2.97743 1.50736C2.97769 2.40237 2.43501 2.99556 1.533 3.00354C0.630488 3.01167 0.0503754 2.51164 2.23314e-06 1.55946Z" transform="translate(216.931 195.554)" fill="#A79F94"/>
<path fill-rule="evenodd" clip-rule="evenodd" d="M1.494 -5.88137e-06C2.4092 0.12269 2.99933 0.613098 3.02078 1.53207C3.04286 2.47713 2.44423 3.03219 1.52699 3.04791C0.596427 3.06401 0.00781374 2.47524 7.00158e-05 1.56249C-0.00754378 0.650736 0.602392 0.152348 1.494 -5.88137e-06Z" transform="translate(169.858 195.508)" fill="#A79F94"/>
<path fill-rule="evenodd" clip-rule="evenodd" d="M0.0662352 0.0183775C0.0441604 0.0337194 0.02209 0.0490472 2.23314e-06 0.0643891C0.0159834 0.0429728 0.0321048 0.0215443 0.0479561 -1.75419e-06C0.0478392 -0.00013155 0.0662352 0.0183775 0.0662352 0.0183775Z" transform="translate(243.574 158.545)" fill="#FDDD48"/>
<path fill-rule="evenodd" clip-rule="evenodd" d="M3.99067 0.00871741C7.00287 0.121977 8.82365 2.04361 10.4216 4.2878C11.7007 6.08427 12.1303 8.21475 12.7414 10.2721C12.7758 10.388 12.7431 10.5238 12.7417 10.6503C12.6286 10.6159 12.4949 10.6093 12.4057 10.543C9.61275 8.46357 6.31315 7.48725 3.11646 6.29178C2.46378 6.04771 1.83342 5.76905 1.29773 5.33649C0.373379 4.5901 -0.217639 3.65212 0.0757134 2.4088C0.367415 1.17224 1.72887 0.142316 3.1478 0.0123903C3.42655 -0.0131535 3.70962 0.00871741 3.99067 0.00871741ZM4.40469 1.96478C4.0904 1.96478 3.81481 1.90742 3.57589 1.97643C3.03003 2.13399 2.43166 2.25205 2.20251 2.89393C2.01624 3.41571 2.22623 3.83128 2.62288 4.13484C3.61764 4.89625 4.76187 5.12258 5.97055 4.8716C6.56309 4.74858 7.18381 4.46942 7.26095 3.77278C7.33683 3.08704 6.79073 2.66907 6.26479 2.40194C5.6819 2.10592 5.05382 1.81546 4.40469 1.96478Z" transform="translate(205.794 59.2455)" fill="#82786E"/>
<path fill-rule="evenodd" clip-rule="evenodd" d="M8.65418 0.012073C11.2661 0.015876 12.9676 1.45143 12.6661 3.42979C12.4194 5.04869 11.111 5.76053 9.73155 6.27997C6.71744 7.41487 3.61895 8.34903 0.901116 10.1618C0.619315 10.3498 0.415277 10.7108 6.21727e-07 10.6752C0.0612878 10.3455 0.110386 10.0131 0.185757 9.68667C1.04882 5.95536 2.62915 2.68594 6.10916 0.680574C6.91906 0.213867 7.80914 -0.0624557 8.65418 0.012073ZM8.30284 2.00071C7.58151 1.89747 6.94646 2.11479 6.35634 2.43339C5.84144 2.71136 5.2947 3.07507 5.31107 3.72374C5.32732 4.37012 5.88902 4.60493 6.44326 4.80754C7.52278 5.20225 8.53708 4.95546 9.4991 4.48768C10.0347 4.2272 10.5624 3.80974 10.4455 3.09871C10.317 2.31663 9.60797 2.1824 8.98701 2.01046C8.76622 1.94938 8.51435 2.00071 8.30284 2.00071Z" transform="translate(185.614 59.2147)" fill="#82786E"/>
<path fill-rule="evenodd" clip-rule="evenodd" d="M7.5144 0.594252C8.39611 1.6967 8.32672 2.1959 6.97933 2.69075C4.97876 3.42547 2.92491 3.44816 0.936907 2.59536C-0.193871 2.11034 -0.262006 1.64109 0.522384 0.675685C1.11607 0.504693 1.70138 0.292567 2.30496 0.170507C4.0774 -0.188015 5.81062 0.0499668 7.5144 0.594252Z" transform="translate(197.751 65.3161)" fill="#4C4C4C"/>
<path fill-rule="evenodd" clip-rule="evenodd" d="M6.99201 3.1698C5.28822 2.62552 3.555 2.38754 1.78258 2.74607C1.17899 2.86813 0.593681 3.08025 -1.90325e-07 3.25125C0.851264 1.75365 1.67688 0.178297 3.6555 0.00622646C5.0974 -0.119143 6.90598 1.67335 6.99201 3.1698Z" transform="translate(198.274 62.7406)" fill="#A79F94"/>
<path fill-rule="evenodd" clip-rule="evenodd" d="M8.77197 3.69714C6.03346 3.61475 3.2952 3.51411 0.803083 2.15398C0.473572 1.97412 -0.116561 1.69418 0.0202148 1.4529C0.187199 1.15857 0.592705 1.64005 0.889994 1.76712C4.49462 3.30838 8.24476 3.47652 12.0629 2.97971C13.4071 2.80478 14.7442 2.56504 15.919 1.80502C16.4791 1.44257 16.895 0.994564 17.0135 0.308762C17.0342 0.189493 17.1728 0.00366479 17.2626 0.000238184C17.485 -0.00825045 17.4119 0.213051 17.4229 0.345456C17.5113 1.42628 16.5312 2.39196 14.8427 2.87083C12.8601 3.43318 10.8484 3.7936 8.77197 3.69714Z" transform="translate(193.37 67.6491)" fill="#4C4C4C"/>
<path fill-rule="evenodd" clip-rule="evenodd" d="M4.04059 0.474624C2.61937 0.802656 1.26236 0.760331 9.19902e-07 7.0982e-07C1.33353 0.318974 2.71162 0.254906 4.04059 0.474624Z" transform="translate(198.701 71.948)" fill="#4C4C4C"/>
<path fill-rule="evenodd" clip-rule="evenodd" d="M0.152394 -5.54547e-07C0.181836 0.109067 0.211392 0.218149 0.24095 0.327216C0.160629 0.329877 0.080321 0.332537 -6.21727e-07 0.335197C0.0507623 0.223469 0.101514 0.111728 0.152394 -5.54547e-07Z" transform="translate(220.525 68.2793)" fill="#A79F94"/>
<path fill-rule="evenodd" clip-rule="evenodd" d="M0.826405 0.696387C0.624665 0.725162 0.422798 0.753933 0.221046 0.782579C0.173089 0.700068 0.124987 0.617926 0.0771604 0.535544C0.0512787 0.357205 -0.0220637 0.0327141 0.00649452 0.0234596C0.303523 -0.0723685 0.495119 0.14488 0.693701 0.323232C0.737981 0.44768 0.782255 0.572042 0.826405 0.696387Z" transform="translate(224.23 132.419)" fill="#FDDD48"/>
<path fill-rule="evenodd" clip-rule="evenodd" d="M0.0409826 0.078971C0.0272752 0.0526094 0.0136938 0.026365 -6.09039e-07 3.4477e-06C0.026011 0.0140733 0.0518939 0.0281377 0.0779056 0.0420777C0.0780355 0.0419609 0.0409826 0.078971 0.0409826 0.078971Z" transform="translate(226.678 117.998)" fill="#A79F94"/>
<path fill-rule="evenodd" clip-rule="evenodd" d="M0.0467051 -2.04073e-06C0.11827 0.404338 0.487111 0.618428 0.333964 1.02949C0.00128311 0.778777 -0.0572115 0.462278 0.0467051 -2.04073e-06Z" transform="translate(156.204 139.253)" fill="#FDDD48"/>
<path fill-rule="evenodd" clip-rule="evenodd" d="M0.0848356 -3.05476e-06C0.131662 0.137022 0.178472 0.274168 0.225168 0.411194C0.109064 0.297752 -0.126298 0.224868 0.0848356 -3.05476e-06Z" transform="translate(224.695 134.262)" fill="#FDDD48"/>
<path fill-rule="evenodd" clip-rule="evenodd" d="M2.27085 0.0404709C2.91998 -0.108846 3.54806 0.181611 4.13096 0.477649C4.6569 0.744782 5.203 1.16275 5.12712 1.84849C5.04997 2.54513 4.42925 2.8243 3.83672 2.94731C2.62803 3.19828 1.4838 2.97196 0.489043 2.21055C0.0924113 1.90697 -0.11758 1.49142 0.0686718 0.969639C0.297826 0.327761 0.896199 0.209685 1.44205 0.0521391C1.68098 -0.0168862 1.95657 0.0404709 2.27085 0.0404709ZM1.57147 1.61361C1.97508 1.59738 2.31957 1.48344 2.40573 1.05811C2.45687 0.805863 2.21401 0.717329 2.02876 0.738434C1.632 0.783564 1.24982 0.93902 1.16862 1.37746C1.11153 1.68579 1.42607 1.56417 1.57147 1.61361ZM3.63384 1.07072C3.63917 0.880846 3.59209 0.718861 3.36243 0.744522C3.15612 0.767522 2.99675 0.902963 3.02163 1.11249C3.03457 1.22118 3.17781 1.37892 3.28377 1.39851C3.49731 1.43793 3.63548 1.30534 3.63384 1.07072Z" transform="translate(207.928 61.1698)" fill="#4C4C4C"/>
<path fill-rule="evenodd" clip-rule="evenodd" d="M2.99214 0.0259383C3.20365 0.0259383 3.45551 -0.0253965 3.67629 0.0356983C4.29725 0.207639 5.00627 0.341873 5.13481 1.12394C5.25167 1.83497 4.72396 2.25243 4.18839 2.51292C3.22636 2.9807 2.21206 3.22749 1.13254 2.83278C0.578318 2.63017 0.0165994 2.39536 0.000358401 1.74898C-0.0160126 1.10031 0.530724 0.736595 1.04562 0.458625C1.63575 0.140015 2.2708 -0.0773012 2.99214 0.0259383ZM1.95093 1.59338C2.30037 1.54629 2.6583 1.52658 2.69866 1.05683C2.72073 0.800779 2.55718 0.66478 2.35493 0.708949C1.98304 0.790266 1.57448 0.914987 1.52562 1.37611C1.49161 1.69693 1.80083 1.53215 1.95093 1.59338ZM3.77767 0.714218C3.48355 0.755545 3.35604 0.924125 3.35452 1.10836C3.35325 1.26838 3.49231 1.43544 3.70091 1.37694C3.88883 1.32427 4.04654 1.18586 3.99692 0.972149C3.97129 0.861823 3.83451 0.777273 3.77767 0.714218Z" transform="translate(190.925 61.1895)" fill="#4C4C4C"/>
<path fill-rule="evenodd" clip-rule="evenodd" d="M0.409702 0.87816C0.264299 0.828721 -0.0502461 0.950353 0.00684441 0.642023C0.0880495 0.203586 0.470223 0.0481178 0.866985 0.00300079C1.05224 -0.018104 1.29508 0.0704294 1.24396 0.322674C1.1578 0.747989 0.813311 0.861936 0.409702 0.87816Z" transform="translate(209.09 61.9052)" fill="white"/>
<path fill-rule="evenodd" clip-rule="evenodd" d="M0.615538 0.328005C0.616422 0.563519 0.478257 0.696092 0.264707 0.656673C0.158763 0.637087 0.0154992 0.479347 0.00255835 0.370656C-0.0223099 0.161127 0.137066 0.0256986 0.343366 0.00268578C0.57304 -0.0229748 0.620112 0.139022 0.615538 0.328005Z" transform="translate(210.947 61.9116)" fill="white"/>
<path fill-rule="evenodd" clip-rule="evenodd" d="M0.427899 0.892651C0.277793 0.831426 -0.0314242 0.996215 0.00259104 0.675399C0.0514441 0.214274 0.460005 0.0895397 0.831899 0.00823562C1.03414 -0.0359339 1.1977 0.100066 1.17562 0.356114C1.13527 0.825845 0.777328 0.845561 0.427899 0.892651Z" transform="translate(192.448 61.8902)" fill="white"/>
<path fill-rule="evenodd" clip-rule="evenodd" d="M0.423158 -3.45404e-07C0.480002 0.0630544 0.616777 0.147604 0.642412 0.257943C0.692018 0.471652 0.534313 0.610066 0.346398 0.662737C0.137798 0.721236 -0.00126624 0.554176 7.0599e-06 0.394151C0.00151423 0.209893 0.129039 0.0413136 0.423158 -3.45404e-07Z" transform="translate(194.28 61.9037)" fill="white"/>
</g>
</svg>
