<svg width="176" height="180" viewBox="0 0 176 180" fill="none" xmlns="http://www.w3.org/2000/svg">
<path d="M0 31.4796L78.6124 64.8864L158.513 31.4796L78.6124 0L0 31.4796Z" transform="translate(8.9165)" fill="#6C87BA" fill-opacity="0.42"/>
<path d="M0 33.4069V132.343L79.9011 98.9358V0L0 33.4069Z" transform="translate(96.0991 47.6574)" fill="#6C87BA" fill-opacity="0.42"/>
<path d="M0 98.9358V0L78.6124 33.4069V132.343L0 98.9358Z" transform="translate(0 47.6574)" fill="#6C87BA" fill-opacity="0.42"/>
<path d="M0 130.415V31.4796L78.6124 0L158.513 31.4796V130.415L78.6124 163.822L0 130.415Z" transform="translate(8.9165 9.92862)" fill="#30394A"/>
<path d="M0 33.4069V132.343L79.9011 98.9358V0L0 33.4069Z" transform="translate(87.5288 41.4082)" fill="#151C28"/>
<path d="M0 98.9358V0L78.6124 33.4069V132.343L0 98.9358Z" transform="translate(8.9165 41.4082)" fill="#47536B"/>
</svg>
